<svg xmlns="http://www.w3.org/2000/svg" width="900" viewBox="0 0 900 471" height="471" version="1.0"><g fill="#E4CB86"><g><g><path d="M 27.015625 -16.03125 C 28.828125 -15.351562 30.226562 -14.375 31.21875 -13.09375 C 32.207031 -11.8125 32.703125 -10.265625 32.703125 -8.453125 C 32.703125 -5.765625 31.59375 -3.679688 29.375 -2.203125 C 27.15625 -0.734375 23.945312 0 19.75 0 L 2.5 0 L 2.5 -30.640625 L 18.875 -30.640625 C 22.957031 -30.640625 26.039062 -29.910156 28.125 -28.453125 C 30.21875 -26.992188 31.265625 -25.054688 31.265625 -22.640625 C 31.265625 -21.203125 30.90625 -19.914062 30.1875 -18.78125 C 29.46875 -17.644531 28.410156 -16.726562 27.015625 -16.03125 Z M 12.65625 -23.421875 L 12.65625 -18.875 L 17.46875 -18.875 C 19.71875 -18.875 20.84375 -19.628906 20.84375 -21.140625 C 20.84375 -22.660156 19.71875 -23.421875 17.46875 -23.421875 Z M 18.875 -7.21875 C 21.144531 -7.21875 22.28125 -8.019531 22.28125 -9.625 C 22.28125 -11.238281 21.144531 -12.046875 18.875 -12.046875 L 12.65625 -12.046875 L 12.65625 -7.21875 Z M 18.875 -7.21875" transform="translate(240.554 184.711)"/></g></g></g><g fill="#E4CB86"><g><g><path d="M 2.5 -30.640625 L 12.828125 -30.640625 L 12.828125 -8.015625 L 26.65625 -8.015625 L 26.65625 0 L 2.5 0 Z M 2.5 -30.640625" transform="translate(296.16 184.711)"/></g></g></g><g fill="#E4CB86"><g><g><path d="M 23.375 -5.34375 L 11.734375 -5.34375 L 9.671875 0 L -0.828125 0 L 12.5625 -30.640625 L 22.71875 -30.640625 L 36.125 0 L 25.4375 0 Z M 20.53125 -12.78125 L 17.5625 -20.484375 L 14.578125 -12.78125 Z M 20.53125 -12.78125" transform="translate(344.938 184.711)"/></g></g></g><g fill="#E4CB86"><g><g><path d="M 18.34375 0.703125 C 15.101562 0.703125 12.179688 0.0234375 9.578125 -1.328125 C 6.984375 -2.691406 4.945312 -4.59375 3.46875 -7.03125 C 2 -9.46875 1.265625 -12.234375 1.265625 -15.328125 C 1.265625 -18.421875 2 -21.1875 3.46875 -23.625 C 4.945312 -26.0625 6.984375 -27.957031 9.578125 -29.3125 C 12.179688 -30.664062 15.101562 -31.34375 18.34375 -31.34375 C 21.320312 -31.34375 23.976562 -30.816406 26.3125 -29.765625 C 28.644531 -28.710938 30.570312 -27.195312 32.09375 -25.21875 L 25.5625 -19.390625 C 23.664062 -21.785156 21.4375 -22.984375 18.875 -22.984375 C 16.707031 -22.984375 14.96875 -22.289062 13.65625 -20.90625 C 12.34375 -19.519531 11.6875 -17.660156 11.6875 -15.328125 C 11.6875 -12.992188 12.34375 -11.128906 13.65625 -9.734375 C 14.96875 -8.347656 16.707031 -7.65625 18.875 -7.65625 C 21.4375 -7.65625 23.664062 -8.851562 25.5625 -11.25 L 32.09375 -5.421875 C 30.570312 -3.441406 28.644531 -1.925781 26.3125 -0.875 C 23.976562 0.175781 21.320312 0.703125 18.34375 0.703125 Z M 18.34375 0.703125" transform="translate(401.99 184.711)"/></g></g></g><g fill="#E4CB86"><g><g><path d="M 14.96875 -10.15625 L 12.65625 -7.578125 L 12.65625 0 L 2.5 0 L 2.5 -30.640625 L 12.65625 -30.640625 L 12.65625 -19.53125 L 22.71875 -30.640625 L 33.96875 -30.640625 L 21.71875 -17.15625 L 34.59375 0 L 22.640625 0 Z M 14.96875 -10.15625" transform="translate(456.327 184.711)"/></g></g></g><g fill="#E4CB86"><g><g><path d="M 27.015625 -16.03125 C 28.828125 -15.351562 30.226562 -14.375 31.21875 -13.09375 C 32.207031 -11.8125 32.703125 -10.265625 32.703125 -8.453125 C 32.703125 -5.765625 31.59375 -3.679688 29.375 -2.203125 C 27.15625 -0.734375 23.945312 0 19.75 0 L 2.5 0 L 2.5 -30.640625 L 18.875 -30.640625 C 22.957031 -30.640625 26.039062 -29.910156 28.125 -28.453125 C 30.21875 -26.992188 31.265625 -25.054688 31.265625 -22.640625 C 31.265625 -21.203125 30.90625 -19.914062 30.1875 -18.78125 C 29.46875 -17.644531 28.410156 -16.726562 27.015625 -16.03125 Z M 12.65625 -23.421875 L 12.65625 -18.875 L 17.46875 -18.875 C 19.71875 -18.875 20.84375 -19.628906 20.84375 -21.140625 C 20.84375 -22.660156 19.71875 -23.421875 17.46875 -23.421875 Z M 18.875 -7.21875 C 21.144531 -7.21875 22.28125 -8.019531 22.28125 -9.625 C 22.28125 -11.238281 21.144531 -12.046875 18.875 -12.046875 L 12.65625 -12.046875 L 12.65625 -7.21875 Z M 18.875 -7.21875" transform="translate(511.584 184.711)"/></g></g></g><g fill="#E4CB86"><g><g><path d="M 18.5625 0.703125 C 15.257812 0.703125 12.296875 0.015625 9.671875 -1.359375 C 7.046875 -2.734375 4.988281 -4.632812 3.5 -7.0625 C 2.007812 -9.5 1.265625 -12.253906 1.265625 -15.328125 C 1.265625 -18.390625 2.007812 -21.140625 3.5 -23.578125 C 4.988281 -26.015625 7.046875 -27.914062 9.671875 -29.28125 C 12.296875 -30.65625 15.257812 -31.34375 18.5625 -31.34375 C 21.863281 -31.34375 24.828125 -30.65625 27.453125 -29.28125 C 30.078125 -27.914062 32.132812 -26.015625 33.625 -23.578125 C 35.113281 -21.140625 35.859375 -18.390625 35.859375 -15.328125 C 35.859375 -12.253906 35.113281 -9.5 33.625 -7.0625 C 32.132812 -4.632812 30.078125 -2.734375 27.453125 -1.359375 C 24.828125 0.015625 21.863281 0.703125 18.5625 0.703125 Z M 18.5625 -7.65625 C 19.84375 -7.65625 21 -7.96875 22.03125 -8.59375 C 23.070312 -9.226562 23.898438 -10.117188 24.515625 -11.265625 C 25.128906 -12.421875 25.4375 -13.773438 25.4375 -15.328125 C 25.4375 -16.867188 25.128906 -18.21875 24.515625 -19.375 C 23.898438 -20.53125 23.070312 -21.421875 22.03125 -22.046875 C 21 -22.671875 19.84375 -22.984375 18.5625 -22.984375 C 17.28125 -22.984375 16.117188 -22.671875 15.078125 -22.046875 C 14.046875 -21.421875 13.222656 -20.53125 12.609375 -19.375 C 11.992188 -18.21875 11.6875 -16.867188 11.6875 -15.328125 C 11.6875 -13.773438 11.992188 -12.421875 12.609375 -11.265625 C 13.222656 -10.117188 14.046875 -9.226562 15.078125 -8.59375 C 16.117188 -7.96875 17.28125 -7.65625 18.5625 -7.65625 Z M 18.5625 -7.65625" transform="translate(567.191 184.711)"/></g></g></g><g fill="#E4CB86"><g><g><path d="M 21.890625 0 L 16.59375 -8.1875 L 11.421875 0 L -0.34375 0 L 10.71875 -15.453125 L 0.046875 -30.640625 L 11.640625 -30.640625 L 16.859375 -22.9375 L 21.9375 -30.640625 L 33.0625 -30.640625 L 22.421875 -15.84375 L 33.71875 0 Z M 21.890625 0" transform="translate(626.082 184.711)"/></g></g></g><g fill="#FFF"><g><g><path d="M 14.75 0.5625 C 12.144531 0.5625 9.796875 0.0195312 7.703125 -1.0625 C 5.617188 -2.15625 3.984375 -3.679688 2.796875 -5.640625 C 1.609375 -7.609375 1.015625 -9.835938 1.015625 -12.328125 C 1.015625 -14.804688 1.609375 -17.023438 2.796875 -18.984375 C 3.984375 -20.953125 5.617188 -22.476562 7.703125 -23.5625 C 9.796875 -24.65625 12.144531 -25.203125 14.75 -25.203125 C 17.144531 -25.203125 19.28125 -24.78125 21.15625 -23.9375 C 23.03125 -23.09375 24.578125 -21.875 25.796875 -20.28125 L 20.5625 -15.59375 C 19.03125 -17.519531 17.234375 -18.484375 15.171875 -18.484375 C 13.429688 -18.484375 12.035156 -17.925781 10.984375 -16.8125 C 9.929688 -15.695312 9.40625 -14.203125 9.40625 -12.328125 C 9.40625 -10.441406 9.929688 -8.941406 10.984375 -7.828125 C 12.035156 -6.710938 13.429688 -6.15625 15.171875 -6.15625 C 17.234375 -6.15625 19.03125 -7.117188 20.5625 -9.046875 L 25.796875 -4.359375 C 24.578125 -2.765625 23.03125 -1.546875 21.15625 -0.703125 C 19.28125 0.140625 17.144531 0.5625 14.75 0.5625 Z M 14.75 0.5625" transform="translate(255.401 236.461)"/></g></g></g><g fill="#FFF"><g><g><path d="M 14.921875 0.5625 C 12.273438 0.5625 9.894531 0.0078125 7.78125 -1.09375 C 5.664062 -2.195312 4.007812 -3.726562 2.8125 -5.6875 C 1.613281 -7.644531 1.015625 -9.859375 1.015625 -12.328125 C 1.015625 -14.785156 1.613281 -16.992188 2.8125 -18.953125 C 4.007812 -20.910156 5.664062 -22.441406 7.78125 -23.546875 C 9.894531 -24.648438 12.273438 -25.203125 14.921875 -25.203125 C 17.578125 -25.203125 19.957031 -24.648438 22.0625 -23.546875 C 24.175781 -22.441406 25.832031 -20.910156 27.03125 -18.953125 C 28.226562 -16.992188 28.828125 -14.785156 28.828125 -12.328125 C 28.828125 -9.859375 28.226562 -7.644531 27.03125 -5.6875 C 25.832031 -3.726562 24.175781 -2.195312 22.0625 -1.09375 C 19.957031 0.0078125 17.578125 0.5625 14.921875 0.5625 Z M 14.921875 -6.15625 C 15.953125 -6.15625 16.882812 -6.40625 17.71875 -6.90625 C 18.550781 -7.414062 19.210938 -8.132812 19.703125 -9.0625 C 20.203125 -9.988281 20.453125 -11.078125 20.453125 -12.328125 C 20.453125 -13.566406 20.203125 -14.648438 19.703125 -15.578125 C 19.210938 -16.503906 18.550781 -17.21875 17.71875 -17.71875 C 16.882812 -18.226562 15.953125 -18.484375 14.921875 -18.484375 C 13.890625 -18.484375 12.957031 -18.226562 12.125 -17.71875 C 11.289062 -17.21875 10.628906 -16.503906 10.140625 -15.578125 C 9.648438 -14.648438 9.40625 -13.566406 9.40625 -12.328125 C 9.40625 -11.078125 9.648438 -9.988281 10.140625 -9.0625 C 10.628906 -8.132812 11.289062 -7.414062 12.125 -6.90625 C 12.957031 -6.40625 13.890625 -6.15625 14.921875 -6.15625 Z M 14.921875 -6.15625" transform="translate(299.08 236.461)"/></g></g></g><g fill="#FFF"><g><g><path d="M 2 -24.640625 L 10.3125 -24.640625 L 10.3125 -6.4375 L 21.4375 -6.4375 L 21.4375 0 L 2 0 Z M 2 -24.640625" transform="translate(346.418 236.461)"/></g></g></g><g fill="#FFF"><g><g><path d="M 2 -24.640625 L 10.3125 -24.640625 L 10.3125 -6.4375 L 21.4375 -6.4375 L 21.4375 0 L 2 0 Z M 2 -24.640625" transform="translate(385.628 236.461)"/></g></g></g><g fill="#FFF"><g><g><path d="M 22.5 -6.265625 L 22.5 0 L 2 0 L 2 -24.640625 L 22.03125 -24.640625 L 22.03125 -18.375 L 10.171875 -18.375 L 10.171875 -15.484375 L 20.59375 -15.484375 L 20.59375 -9.5 L 10.171875 -9.5 L 10.171875 -6.265625 Z M 22.5 -6.265625" transform="translate(424.837 236.461)"/></g></g></g><g fill="#FFF"><g><g><path d="M 14.75 0.5625 C 12.144531 0.5625 9.796875 0.0195312 7.703125 -1.0625 C 5.617188 -2.15625 3.984375 -3.679688 2.796875 -5.640625 C 1.609375 -7.609375 1.015625 -9.835938 1.015625 -12.328125 C 1.015625 -14.804688 1.609375 -17.023438 2.796875 -18.984375 C 3.984375 -20.953125 5.617188 -22.476562 7.703125 -23.5625 C 9.796875 -24.65625 12.144531 -25.203125 14.75 -25.203125 C 17.144531 -25.203125 19.28125 -24.78125 21.15625 -23.9375 C 23.03125 -23.09375 24.578125 -21.875 25.796875 -20.28125 L 20.5625 -15.59375 C 19.03125 -17.519531 17.234375 -18.484375 15.171875 -18.484375 C 13.429688 -18.484375 12.035156 -17.925781 10.984375 -16.8125 C 9.929688 -15.695312 9.40625 -14.203125 9.40625 -12.328125 C 9.40625 -10.441406 9.929688 -8.941406 10.984375 -7.828125 C 12.035156 -6.710938 13.429688 -6.15625 15.171875 -6.15625 C 17.234375 -6.15625 19.03125 -7.117188 20.5625 -9.046875 L 25.796875 -4.359375 C 24.578125 -2.765625 23.03125 -1.546875 21.15625 -0.703125 C 19.28125 0.140625 17.144531 0.5625 14.75 0.5625 Z M 14.75 0.5625" transform="translate(466.017 236.461)"/></g></g></g><g fill="#FFF"><g><g><path d="M 7.359375 -18.203125 L 0.140625 -18.203125 L 0.140625 -24.640625 L 22.875 -24.640625 L 22.875 -18.203125 L 15.671875 -18.203125 L 15.671875 0 L 7.359375 0 Z M 7.359375 -18.203125" transform="translate(509.695 236.461)"/></g></g></g><g fill="#FFF"><g><g><path d="M 2 -24.640625 L 10.3125 -24.640625 L 10.3125 0 L 2 0 Z M 2 -24.640625" transform="translate(550.207 236.461)"/></g></g></g><g fill="#FFF"><g><g><path d="M 28.34375 -24.640625 L 17.921875 0 L 9.75 0 L -0.671875 -24.640625 L 8.265625 -24.640625 L 14.15625 -10.25 L 20.171875 -24.640625 Z M 28.34375 -24.640625" transform="translate(580.02 236.461)"/></g></g></g><g fill="#FFF"><g><g><path d="M 22.5 -6.265625 L 22.5 0 L 2 0 L 2 -24.640625 L 22.03125 -24.640625 L 22.03125 -18.375 L 10.171875 -18.375 L 10.171875 -15.484375 L 20.59375 -15.484375 L 20.59375 -9.5 L 10.171875 -9.5 L 10.171875 -6.265625 Z M 22.5 -6.265625" transform="translate(625.176 236.461)"/></g></g></g><g fill="#E4CB86"><g><g><path d="M 18.796875 -4.296875 L 9.4375 -4.296875 L 7.78125 0 L -0.671875 0 L 10.109375 -24.640625 L 18.265625 -24.640625 L 29.046875 0 L 20.453125 0 Z M 16.515625 -10.28125 L 14.109375 -16.46875 L 11.71875 -10.28125 Z M 16.515625 -10.28125" transform="translate(156.413 285.211)"/></g></g></g><g fill="#E4CB86"><g><g><path d="M 14.75 0.5625 C 12.144531 0.5625 9.796875 0.0195312 7.703125 -1.0625 C 5.617188 -2.15625 3.984375 -3.679688 2.796875 -5.640625 C 1.609375 -7.609375 1.015625 -9.835938 1.015625 -12.328125 C 1.015625 -14.804688 1.609375 -17.023438 2.796875 -18.984375 C 3.984375 -20.953125 5.617188 -22.476562 7.703125 -23.5625 C 9.796875 -24.65625 12.144531 -25.203125 14.75 -25.203125 C 17.144531 -25.203125 19.28125 -24.78125 21.15625 -23.9375 C 23.03125 -23.09375 24.578125 -21.875 25.796875 -20.28125 L 20.5625 -15.59375 C 19.03125 -17.519531 17.234375 -18.484375 15.171875 -18.484375 C 13.429688 -18.484375 12.035156 -17.925781 10.984375 -16.8125 C 9.929688 -15.695312 9.40625 -14.203125 9.40625 -12.328125 C 9.40625 -10.441406 9.929688 -8.941406 10.984375 -7.828125 C 12.035156 -6.710938 13.429688 -6.15625 15.171875 -6.15625 C 17.234375 -6.15625 19.03125 -7.117188 20.5625 -9.046875 L 25.796875 -4.359375 C 24.578125 -2.765625 23.03125 -1.546875 21.15625 -0.703125 C 19.28125 0.140625 17.144531 0.5625 14.75 0.5625 Z M 14.75 0.5625" transform="translate(202.273 285.211)"/></g></g></g><g fill="#E4CB86"><g><g><path d="M 14.75 0.5625 C 12.144531 0.5625 9.796875 0.0195312 7.703125 -1.0625 C 5.617188 -2.15625 3.984375 -3.679688 2.796875 -5.640625 C 1.609375 -7.609375 1.015625 -9.835938 1.015625 -12.328125 C 1.015625 -14.804688 1.609375 -17.023438 2.796875 -18.984375 C 3.984375 -20.953125 5.617188 -22.476562 7.703125 -23.5625 C 9.796875 -24.65625 12.144531 -25.203125 14.75 -25.203125 C 17.144531 -25.203125 19.28125 -24.78125 21.15625 -23.9375 C 23.03125 -23.09375 24.578125 -21.875 25.796875 -20.28125 L 20.5625 -15.59375 C 19.03125 -17.519531 17.234375 -18.484375 15.171875 -18.484375 C 13.429688 -18.484375 12.035156 -17.925781 10.984375 -16.8125 C 9.929688 -15.695312 9.40625 -14.203125 9.40625 -12.328125 C 9.40625 -10.441406 9.929688 -8.941406 10.984375 -7.828125 C 12.035156 -6.710938 13.429688 -6.15625 15.171875 -6.15625 C 17.234375 -6.15625 19.03125 -7.117188 20.5625 -9.046875 L 25.796875 -4.359375 C 24.578125 -2.765625 23.03125 -1.546875 21.15625 -0.703125 C 19.28125 0.140625 17.144531 0.5625 14.75 0.5625 Z M 14.75 0.5625" transform="translate(245.952 285.211)"/></g></g></g><g fill="#E4CB86"><g><g><path d="M 22.5 -6.265625 L 22.5 0 L 2 0 L 2 -24.640625 L 22.03125 -24.640625 L 22.03125 -18.375 L 10.171875 -18.375 L 10.171875 -15.484375 L 20.59375 -15.484375 L 20.59375 -9.5 L 10.171875 -9.5 L 10.171875 -6.265625 Z M 22.5 -6.265625" transform="translate(289.63 285.211)"/></g></g></g><g fill="#E4CB86"><g><g><path d="M 11.1875 0.5625 C 9.144531 0.5625 7.15625 0.332031 5.21875 -0.125 C 3.289062 -0.582031 1.703125 -1.195312 0.453125 -1.96875 L 3.140625 -8.03125 C 4.304688 -7.34375 5.617188 -6.789062 7.078125 -6.375 C 8.535156 -5.96875 9.929688 -5.765625 11.265625 -5.765625 C 12.410156 -5.765625 13.226562 -5.875 13.71875 -6.09375 C 14.21875 -6.320312 14.46875 -6.660156 14.46875 -7.109375 C 14.46875 -7.628906 14.144531 -8.015625 13.5 -8.265625 C 12.851562 -8.523438 11.789062 -8.8125 10.3125 -9.125 C 8.414062 -9.519531 6.832031 -9.945312 5.5625 -10.40625 C 4.289062 -10.863281 3.1875 -11.613281 2.25 -12.65625 C 1.3125 -13.695312 0.84375 -15.109375 0.84375 -16.890625 C 0.84375 -18.441406 1.273438 -19.847656 2.140625 -21.109375 C 3.015625 -22.378906 4.3125 -23.378906 6.03125 -24.109375 C 7.757812 -24.835938 9.859375 -25.203125 12.328125 -25.203125 C 14.015625 -25.203125 15.671875 -25.019531 17.296875 -24.65625 C 18.929688 -24.289062 20.367188 -23.757812 21.609375 -23.0625 L 19.109375 -17.03125 C 16.691406 -18.257812 14.40625 -18.875 12.25 -18.875 C 10.113281 -18.875 9.046875 -18.351562 9.046875 -17.3125 C 9.046875 -16.820312 9.363281 -16.453125 10 -16.203125 C 10.632812 -15.960938 11.675781 -15.703125 13.125 -15.421875 C 15.007812 -15.066406 16.59375 -14.660156 17.875 -14.203125 C 19.164062 -13.742188 20.285156 -13 21.234375 -11.96875 C 22.191406 -10.9375 22.671875 -9.53125 22.671875 -7.75 C 22.671875 -6.195312 22.234375 -4.789062 21.359375 -3.53125 C 20.492188 -2.28125 19.195312 -1.285156 17.46875 -0.546875 C 15.75 0.191406 13.65625 0.5625 11.1875 0.5625 Z M 11.1875 0.5625" transform="translate(330.81 285.211)"/></g></g></g><g fill="#E4CB86"><g><g><path d="M 11.1875 0.5625 C 9.144531 0.5625 7.15625 0.332031 5.21875 -0.125 C 3.289062 -0.582031 1.703125 -1.195312 0.453125 -1.96875 L 3.140625 -8.03125 C 4.304688 -7.34375 5.617188 -6.789062 7.078125 -6.375 C 8.535156 -5.96875 9.929688 -5.765625 11.265625 -5.765625 C 12.410156 -5.765625 13.226562 -5.875 13.71875 -6.09375 C 14.21875 -6.320312 14.46875 -6.660156 14.46875 -7.109375 C 14.46875 -7.628906 14.144531 -8.015625 13.5 -8.265625 C 12.851562 -8.523438 11.789062 -8.8125 10.3125 -9.125 C 8.414062 -9.519531 6.832031 -9.945312 5.5625 -10.40625 C 4.289062 -10.863281 3.1875 -11.613281 2.25 -12.65625 C 1.3125 -13.695312 0.84375 -15.109375 0.84375 -16.890625 C 0.84375 -18.441406 1.273438 -19.847656 2.140625 -21.109375 C 3.015625 -22.378906 4.3125 -23.378906 6.03125 -24.109375 C 7.757812 -24.835938 9.859375 -25.203125 12.328125 -25.203125 C 14.015625 -25.203125 15.671875 -25.019531 17.296875 -24.65625 C 18.929688 -24.289062 20.367188 -23.757812 21.609375 -23.0625 L 19.109375 -17.03125 C 16.691406 -18.257812 14.40625 -18.875 12.25 -18.875 C 10.113281 -18.875 9.046875 -18.351562 9.046875 -17.3125 C 9.046875 -16.820312 9.363281 -16.453125 10 -16.203125 C 10.632812 -15.960938 11.675781 -15.703125 13.125 -15.421875 C 15.007812 -15.066406 16.59375 -14.660156 17.875 -14.203125 C 19.164062 -13.742188 20.285156 -13 21.234375 -11.96875 C 22.191406 -10.9375 22.671875 -9.53125 22.671875 -7.75 C 22.671875 -6.195312 22.234375 -4.789062 21.359375 -3.53125 C 20.492188 -2.28125 19.195312 -1.285156 17.46875 -0.546875 C 15.75 0.191406 13.65625 0.5625 11.1875 0.5625 Z M 11.1875 0.5625" transform="translate(371.427 285.211)"/></g></g></g><g fill="#E4CB86"><g><g><path d="M 13.875 -24.640625 C 16.144531 -24.640625 18.125 -24.265625 19.8125 -23.515625 C 21.507812 -22.765625 22.8125 -21.6875 23.71875 -20.28125 C 24.632812 -18.875 25.09375 -17.226562 25.09375 -15.34375 C 25.09375 -13.46875 24.632812 -11.828125 23.71875 -10.421875 C 22.8125 -9.015625 21.507812 -7.9375 19.8125 -7.1875 C 18.125 -6.4375 16.144531 -6.0625 13.875 -6.0625 L 10.3125 -6.0625 L 10.3125 0 L 2 0 L 2 -24.640625 Z M 13.34375 -12.46875 C 14.46875 -12.46875 15.3125 -12.71875 15.875 -13.21875 C 16.4375 -13.71875 16.71875 -14.425781 16.71875 -15.34375 C 16.71875 -16.257812 16.4375 -16.96875 15.875 -17.46875 C 15.3125 -17.976562 14.46875 -18.234375 13.34375 -18.234375 L 10.3125 -18.234375 L 10.3125 -12.46875 Z M 13.34375 -12.46875" transform="translate(440.098 285.211)"/></g></g></g><g fill="#E4CB86"><g><g><path d="M 18.796875 -4.296875 L 9.4375 -4.296875 L 7.78125 0 L -0.671875 0 L 10.109375 -24.640625 L 18.265625 -24.640625 L 29.046875 0 L 20.453125 0 Z M 16.515625 -10.28125 L 14.109375 -16.46875 L 11.71875 -10.28125 Z M 16.515625 -10.28125" transform="translate(483.741 285.211)"/></g></g></g><g fill="#E4CB86"><g><g><path d="M 11.1875 0.5625 C 9.144531 0.5625 7.15625 0.332031 5.21875 -0.125 C 3.289062 -0.582031 1.703125 -1.195312 0.453125 -1.96875 L 3.140625 -8.03125 C 4.304688 -7.34375 5.617188 -6.789062 7.078125 -6.375 C 8.535156 -5.96875 9.929688 -5.765625 11.265625 -5.765625 C 12.410156 -5.765625 13.226562 -5.875 13.71875 -6.09375 C 14.21875 -6.320312 14.46875 -6.660156 14.46875 -7.109375 C 14.46875 -7.628906 14.144531 -8.015625 13.5 -8.265625 C 12.851562 -8.523438 11.789062 -8.8125 10.3125 -9.125 C 8.414062 -9.519531 6.832031 -9.945312 5.5625 -10.40625 C 4.289062 -10.863281 3.1875 -11.613281 2.25 -12.65625 C 1.3125 -13.695312 0.84375 -15.109375 0.84375 -16.890625 C 0.84375 -18.441406 1.273438 -19.847656 2.140625 -21.109375 C 3.015625 -22.378906 4.3125 -23.378906 6.03125 -24.109375 C 7.757812 -24.835938 9.859375 -25.203125 12.328125 -25.203125 C 14.015625 -25.203125 15.671875 -25.019531 17.296875 -24.65625 C 18.929688 -24.289062 20.367188 -23.757812 21.609375 -23.0625 L 19.109375 -17.03125 C 16.691406 -18.257812 14.40625 -18.875 12.25 -18.875 C 10.113281 -18.875 9.046875 -18.351562 9.046875 -17.3125 C 9.046875 -16.820312 9.363281 -16.453125 10 -16.203125 C 10.632812 -15.960938 11.675781 -15.703125 13.125 -15.421875 C 15.007812 -15.066406 16.59375 -14.660156 17.875 -14.203125 C 19.164062 -13.742188 20.285156 -13 21.234375 -11.96875 C 22.191406 -10.9375 22.671875 -9.53125 22.671875 -7.75 C 22.671875 -6.195312 22.234375 -4.789062 21.359375 -3.53125 C 20.492188 -2.28125 19.195312 -1.285156 17.46875 -0.546875 C 15.75 0.191406 13.65625 0.5625 11.1875 0.5625 Z M 11.1875 0.5625" transform="translate(529.602 285.211)"/></g></g></g><g fill="#E4CB86"><g><g><path d="M 11.1875 0.5625 C 9.144531 0.5625 7.15625 0.332031 5.21875 -0.125 C 3.289062 -0.582031 1.703125 -1.195312 0.453125 -1.96875 L 3.140625 -8.03125 C 4.304688 -7.34375 5.617188 -6.789062 7.078125 -6.375 C 8.535156 -5.96875 9.929688 -5.765625 11.265625 -5.765625 C 12.410156 -5.765625 13.226562 -5.875 13.71875 -6.09375 C 14.21875 -6.320312 14.46875 -6.660156 14.46875 -7.109375 C 14.46875 -7.628906 14.144531 -8.015625 13.5 -8.265625 C 12.851562 -8.523438 11.789062 -8.8125 10.3125 -9.125 C 8.414062 -9.519531 6.832031 -9.945312 5.5625 -10.40625 C 4.289062 -10.863281 3.1875 -11.613281 2.25 -12.65625 C 1.3125 -13.695312 0.84375 -15.109375 0.84375 -16.890625 C 0.84375 -18.441406 1.273438 -19.847656 2.140625 -21.109375 C 3.015625 -22.378906 4.3125 -23.378906 6.03125 -24.109375 C 7.757812 -24.835938 9.859375 -25.203125 12.328125 -25.203125 C 14.015625 -25.203125 15.671875 -25.019531 17.296875 -24.65625 C 18.929688 -24.289062 20.367188 -23.757812 21.609375 -23.0625 L 19.109375 -17.03125 C 16.691406 -18.257812 14.40625 -18.875 12.25 -18.875 C 10.113281 -18.875 9.046875 -18.351562 9.046875 -17.3125 C 9.046875 -16.820312 9.363281 -16.453125 10 -16.203125 C 10.632812 -15.960938 11.675781 -15.703125 13.125 -15.421875 C 15.007812 -15.066406 16.59375 -14.660156 17.875 -14.203125 C 19.164062 -13.742188 20.285156 -13 21.234375 -11.96875 C 22.191406 -10.9375 22.671875 -9.53125 22.671875 -7.75 C 22.671875 -6.195312 22.234375 -4.789062 21.359375 -3.53125 C 20.492188 -2.28125 19.195312 -1.285156 17.46875 -0.546875 C 15.75 0.191406 13.65625 0.5625 11.1875 0.5625 Z M 11.1875 0.5625" transform="translate(570.218 285.211)"/></g></g></g><g fill="#E4CB86"><g><g><path d="M 26.296875 -24.640625 L 26.296875 0 L 19.46875 0 L 10.109375 -11.1875 L 10.109375 0 L 2 0 L 2 -24.640625 L 8.84375 -24.640625 L 18.203125 -13.453125 L 18.203125 -24.640625 Z M 26.296875 -24.640625" transform="translate(638.889 285.211)"/></g></g></g><g fill="#E4CB86"><g><g><path d="M 10.3125 -18.375 L 10.3125 -14.15625 L 20.59375 -14.15625 L 20.59375 -7.890625 L 10.3125 -7.890625 L 10.3125 0 L 2 0 L 2 -24.640625 L 22.03125 -24.640625 L 22.03125 -18.375 Z M 10.3125 -18.375" transform="translate(684.679 285.211)"/></g></g></g><g fill="#E4CB86"><g><g><path d="M 7.359375 -18.203125 L 0.140625 -18.203125 L 0.140625 -24.640625 L 22.875 -24.640625 L 22.875 -18.203125 L 15.671875 -18.203125 L 15.671875 0 L 7.359375 0 Z M 7.359375 -18.203125" transform="translate(724.838 285.211)"/></g></g></g></svg>